<svg xmlns="http://www.w3.org/2000/svg" viewBox="0 0 64 64" width="64" height="64">
  <defs>
    <radialGradient id="radarGlow" cx="50%" cy="50%" r="50%">
      <stop offset="0%" stop-color="#00f0ff" stop-opacity="1"/>
      <stop offset="60%" stop-color="#0077ff" stop-opacity="0.8"/>
      <stop offset="100%" stop-color="#070a12" stop-opacity="0"/>
    </radialGradient>
    <linearGradient id="vortexGrad" x1="0%" y1="0%" x2="100%" y2="100%">
      <stop offset="0%" stop-color="#00f0ff"/>
      <stop offset="100%" stop-color="#ff2a5f"/>
    </linearGradient>
  </defs>
  <rect width="64" height="64" rx="14" fill="#070a12"/>
  <circle cx="32" cy="32" r="28" fill="none" stroke="#00f0ff" stroke-width="1.5" stroke-dasharray="3 3" opacity="0.4"/>
  <circle cx="32" cy="32" r="20" fill="none" stroke="#0077ff" stroke-width="1.5" opacity="0.6"/>
  <circle cx="32" cy="32" r="12" fill="url(#radarGlow)" opacity="0.4"/>
  <!-- Cyclone spiral arms -->
  <path d="M32 14 C44 14, 50 24, 46 34 C43 42, 34 46, 26 44 C20 42, 16 34, 18 28 C20 23, 27 22, 30 25 C33 28, 32 32, 29 33 C27 34, 25 32, 26 30" fill="none" stroke="url(#vortexGrad)" stroke-width="3" stroke-linecap="round"/>
  <circle cx="32" cy="32" r="3.5" fill="#ff2a5f"/>
</svg>
